# xmcd
#
# Track frame offsets: 
#        150
#        31006
#        63793
#        91742
#        110366
#        135387
#
# Disc length: 2430 seconds
#
# Revision: 0
# Processed by: cddbd v1.5.2PL0 Copyright (c) Steve Scherf et al.
# Submitted via: ExactAudioCopyFreeDBPlugin 1.0
#
DISCID=3a097c06
DTITLE=Peaking Lights - The Fifth State Of Consciousness [CD 1)
DYEAR=2017
DGENRE=Pop
TTITLE0=Dreaming Outside
TTITLE1=Coyote Ghost Melodies
TTITLE2=Everytime I See The Light
TTITLE3=I'll Be In The Sky
TTITLE4=Love Can Move Mountains
TTITLE5=Sweetness Isn't Far Away
EXTD=
EXTT0=
EXTT1=
EXTT2=
EXTT3=
EXTT4=
EXTT5=
PLAYORDER=
